<?xml version="1.0" standalone="no"?><!DOCTYPE svg PUBLIC "-//W3C//DTD SVG 1.1//EN" "http://www.w3.org/Graphics/SVG/1.1/DTD/svg11.dtd"><svg t="1535095034266" class="icon" style="" viewBox="0 0 1024 1024" version="1.1" xmlns="http://www.w3.org/2000/svg" p-id="1622" xmlns:xlink="http://www.w3.org/1999/xlink" width="200" height="200"><defs><style type="text/css"></style></defs><path d="M841.955556 938.666667c0 17.066667-11.377778 28.444444-28.444445 28.444444H204.8c-17.066667 0-28.444444-11.377778-28.444444-28.444444s11.377778-28.444444 28.444444-28.444445h608.711111c17.066667-5.688889 28.444444 5.688889 28.444445 28.444445zM506.311111 56.888889C403.911111 56.888889 318.577778 142.222222 318.577778 244.622222c0 79.644444 56.888889 153.6 125.155555 176.355556 0 73.955556-11.377778 187.733333-28.444444 187.733333-39.822222 0-301.511111 51.2-301.511111 91.022222v119.466667c0 22.755556 11.377778 34.133333 28.444444 34.133333h728.177778c17.066667 0 28.444444-11.377778 28.444444-28.444444v-119.466667c0-39.822222-256-85.333333-295.822222-85.333333-17.066667 0-22.755556-113.777778-28.444444-187.733333 73.955556-22.755556 125.155556-96.711111 125.155555-176.355556 0-113.777778-79.644444-199.111111-193.422222-199.111111z" p-id="1623"></path></svg>
