<?xml version="1.0" standalone="no"?><!DOCTYPE svg PUBLIC "-//W3C//DTD SVG 1.1//EN" "http://www.w3.org/Graphics/SVG/1.1/DTD/svg11.dtd"><svg t="1571033886972" class="icon" viewBox="0 0 1024 1024" version="1.1" xmlns="http://www.w3.org/2000/svg" p-id="5558" xmlns:xlink="http://www.w3.org/1999/xlink" width="200" height="200"><defs><style type="text/css"></style></defs><path d="M320.22 879.87m-64 0a64 64 0 1 0 128 0 64 64 0 1 0-128 0Z" p-id="5559"></path><path d="M737.23 879.87m-64 0a64 64 0 1 0 128 0 64 64 0 1 0-128 0Z" p-id="5560"></path><path d="M917.93 195.85H198.37a32.22 32.22 0 0 0-4.48 0.32l-10.69-60.64q-0.08-0.44-0.17-0.88c-3.16-15.39-11.91-28.34-25.3-37.48-15.25-10.4-35.55-15.32-61.92-15a32 32 0 0 0 0.33 64h0.34c14.89-0.16 21.75 2.21 24.19 3.38L225.35 743.6A44.06 44.06 0 0 0 269.2 784H800a32 32 0 0 0 0-64H286.17l-7.9-44.83h543.32c21.19 0 38.75-15 41.54-34.39L959 243.13a32 32 0 0 0 0.89-7.5c-0.04-21.94-18.89-39.78-41.96-39.78z m-113.5 415.28H269.06c-0.69 0-1.37 0-2.05 0.07L205.1 259.85h684z" p-id="5561"></path></svg>