<?xml version="1.0" standalone="no"?><!DOCTYPE svg PUBLIC "-//W3C//DTD SVG 1.1//EN" "http://www.w3.org/Graphics/SVG/1.1/DTD/svg11.dtd"><svg t="1619688571675" class="icon" viewBox="0 0 1092 1024" version="1.1" xmlns="http://www.w3.org/2000/svg" p-id="11478" xmlns:xlink="http://www.w3.org/1999/xlink" width="213.28125" height="200"><defs><style type="text/css"></style></defs><path d="M443.733333 955.733333H136.533333c-40.96 0-68.266667-27.306667-68.266666-68.266666V136.533333c0-40.96 27.306667-68.266667 68.266666-68.266666h614.4c40.96 0 68.266667 27.306667 68.266667 68.266666v170.666667c0 20.48 13.653333 34.133333 34.133333 34.133333s34.133333-13.653333 34.133334-34.133333V136.533333c0-75.093333-61.44-136.533333-136.533334-136.533333H136.533333C61.44 0 0 61.44 0 136.533333v750.933334c0 75.093333 61.44 136.533333 136.533333 136.533333h307.2c20.48 0 34.133333-13.653333 34.133334-34.133333s-13.653333-34.133333-34.133334-34.133334z" p-id="11479"></path><path d="M682.666667 307.2c0-20.48-13.653333-34.133333-34.133334-34.133333h-409.6c-20.48 0-34.133333 13.653333-34.133333 34.133333s13.653333 34.133333 34.133333 34.133333h409.6c20.48 0 34.133333-13.653333 34.133334-34.133333zM238.933333 477.866667c-20.48 0-34.133333 13.653333-34.133333 34.133333s13.653333 34.133333 34.133333 34.133333h204.8c20.48 0 34.133333-13.653333 34.133334-34.133333S464.213333 477.866667 443.733333 477.866667h-204.8zM785.066667 409.6C614.4 409.6 477.866667 546.133333 477.866667 716.8S614.4 1024 785.066667 1024s307.2-136.533333 307.2-307.2S955.733333 409.6 785.066667 409.6z m0 546.133333C655.36 955.733333 546.133333 846.506667 546.133333 716.8S655.36 477.866667 785.066667 477.866667 1024 587.093333 1024 716.8 914.773333 955.733333 785.066667 955.733333z" p-id="11480"></path><path d="M907.946667 600.746667c-13.653333-13.653333-34.133333-13.653333-47.786667 0l-75.093333 75.093333-75.093334-75.093333c-13.653333-13.653333-34.133333-13.653333-47.786666 0s-13.653333 34.133333 0 47.786666l75.093333 75.093334-75.093333 75.093333c-13.653333 13.653333-13.653333 34.133333 0 47.786667 13.653333 13.653333 34.133333 13.653333 47.786666 0l75.093334-75.093334 75.093333 75.093334c13.653333 13.653333 34.133333 13.653333 47.786667 0 13.653333-13.653333 13.653333-34.133333 0-47.786667l-75.093334-75.093333 75.093334-75.093334c13.653333-13.653333 13.653333-34.133333 0-47.786666z" p-id="11481"></path></svg>