<?xml version="1.0" standalone="no"?><!DOCTYPE svg PUBLIC "-//W3C//DTD SVG 1.1//EN" "http://www.w3.org/Graphics/SVG/1.1/DTD/svg11.dtd"><svg t="1524035787887" class="icon" style="" viewBox="0 0 1024 1024" version="1.1" xmlns="http://www.w3.org/2000/svg" p-id="4298" xmlns:xlink="http://www.w3.org/1999/xlink" width="200" height="200"><defs><style type="text/css"></style></defs><path d="M996.464054 679.991672c-7.849985 0-15.58797-3.242994-21.276959-9.556981l-427.746164-481.109061c-9.613981-10.808979-22.186957-16.724967-35.384931-16.724967-13.197974 0-25.82795 5.972988-35.384931 16.781967L49.777903 670.49169c-10.40998 11.774977-28.444944 12.742975-40.163922 2.388996-11.775977-10.46798-12.799975-28.387945-2.389995-40.163922l426.837166-481.10906c20.53696-23.152955 48.241906-35.89593 77.937848-35.89593h0.057c29.695942 0 57.399888 12.742975 77.879848 35.83993l427.804164 481.10906c10.46798 11.717977 9.386982 29.694942-2.389995 40.162922a28.498944 28.498944 0 0 1-18.885963 7.167986z" p-id="4299"></path><path d="M853.331333 625.776778v284.443444c0 31.402939-25.48595 56.889889-56.888889 56.889889H682.665667V739.553556c0-62.805877-51.0299-113.777778-113.777778-113.777778H455.109111c-62.747877 0-113.777778 50.9719-113.777778 113.777778V967.108111H227.555556c-31.345939 0-56.889889-25.48595-56.889889-56.888889V625.776778h-56.887889v284.443444c0 62.748877 51.0299 113.777778 113.777778 113.777778h170.666666V739.554556c0-31.345939 25.54195-56.889889 56.887889-56.889889H568.888889c31.402939 0 56.888889 25.54395 56.888889 56.889889V1023.998h170.665666c62.748877 0 113.777778-51.0299 113.777778-113.777778V625.776778h-56.888889z" p-id="4300"></path></svg>