<svg t="1619064044239" class="icon" viewBox="0 0 1280 1024" version="1.1" xmlns="http://www.w3.org/2000/svg" p-id="8067" width="200" height="200"><path d="M1221 234L676.8 7.4a96.3 96.3 0 0 0-73.8 0L59 234C23.4 249 0 283.8 0 322.6V1008c0 8.8 7.2 16 16 16h96c8.8 0 16-7.2 16-16V416c0-17.6 14.4-32 32-32h960c17.6 0 32 14.4 32 32v592c0 8.8 7.2 16 16 16h96c8.8 0 16-7.2 16-16V322.6c0-38.8-23.4-73.6-59-88.6zM608 832H288c-17.6 0-32 14.4-32 32v128c0 17.6 14.4 32 32 32h320c17.6 0 32-14.4 32-32v-128c0-17.6-14.4-32-32-32z m384 0H736c-17.6 0-32 14.4-32 32v128c0 17.6 14.4 32 32 32h256c17.6 0 32-14.4 32-32v-128c0-17.6-14.4-32-32-32zM608 576H288c-17.6 0-32 14.4-32 32v128c0 17.6 14.4 32 32 32h320c17.6 0 32-14.4 32-32v-128c0-17.6-14.4-32-32-32z" p-id="8068"></path></svg>