<?xml version="1.0" standalone="no"?><!DOCTYPE svg PUBLIC "-//W3C//DTD SVG 1.1//EN" "http://www.w3.org/Graphics/SVG/1.1/DTD/svg11.dtd"><svg t="1528880309572" class="icon" style="" viewBox="0 0 1024 1024" version="1.1" xmlns="http://www.w3.org/2000/svg" p-id="1832" xmlns:xlink="http://www.w3.org/1999/xlink" width="200" height="200"><defs><style type="text/css"></style></defs><path d="M511.406994 65.009619c-246.822478 0-446.912609 200.090131-446.912609 446.912609 0 246.823502 200.090131 446.912609 446.912609 446.912609 246.823502 0 446.912609-200.089108 446.912609-446.912609C958.319603 265.098727 758.230496 65.009619 511.406994 65.009619zM540.767696 734.277456l0 74.975599-66.512856 0 0-69.143777c-45.008077-2.175549-88.672552-16.010649-114.194832-31.28861l20.144806-85.158519c28.224832 16.727986 67.856457 32.021298 111.500467 32.021298 38.97057 0 65.175395-16.72287 65.175395-45.119617 0-27.644617-21.505803-45.124733-71.880097-63.325257-71.874981-26.200732-120.895441-62.579267-120.895441-133.196605 0-64.775282 41.615816-114.999151 113.492844-129.540332L477.597981 215.347626l65.839521 0 0 64.048735c44.332694 1.454118 74.564229 12.379958 98.075713 24.00881l-20.159132 82.265632c-16.787338-8.734942-48.365544-25.484418-96.713692-25.484418-43.656289 0-57.773821 21.106714-57.773821 41.470507 0 23.310915 23.509437 39.320541 81.279165 61.895699 79.923284 30.55797 111.500467 70.591755 111.500467 136.821155C659.6462 665.155169 618.002754 720.462822 540.767696 734.277456z" p-id="1833"></path></svg>