<?xml version="1.0" standalone="no"?><!DOCTYPE svg PUBLIC "-//W3C//DTD SVG 1.1//EN" "http://www.w3.org/Graphics/SVG/1.1/DTD/svg11.dtd"><svg t="1528880923674" class="icon" style="" viewBox="0 0 1024 1024" version="1.1" xmlns="http://www.w3.org/2000/svg" p-id="3581" xmlns:xlink="http://www.w3.org/1999/xlink" width="200" height="200"><defs><style type="text/css"></style></defs><path d="M511.976976 945.959599c-239.47514 0-433.597349-194.300264-433.597349-433.964716 0-239.677754 194.122209-433.955506 433.597349-433.955506s433.642374 194.277752 433.642374 433.955506C945.61935 751.659335 751.453139 945.959599 511.976976 945.959599zM666.05312 408.869155l-131.822304-132.292002c-2.899026-4.303003-7.091512-7.870248-12.509918-9.766434-2.876514-1.137916-5.952572-1.64957-9.119705-1.582031-0.222057 0-0.401136-0.112564-0.623193-0.112564-0.289596 0-0.535189 0.13303-0.847298 0.156566-3.03308-0.044002-6.021134 0.423649-8.830109 1.515516-5.507434 1.918699-9.787924 5.528923-12.664438 9.945513L357.945857 408.869155c-9.275247 9.29776-8.562003 25.061792 1.560542 35.184337 10.168594 10.146081 25.463951 10.413164 34.739199 1.11438 0.73678-0.735757 1.471514-1.248434 2.073218-2.073218l89.747024-89.456405 0.245593 399.136489c-0.155543 0.936325 0 1.783623 0 2.76395 0 12.352329 10.992355 22.342868 25.352411 22.342868 14.314007 0 25.976628-9.990538 25.976628-22.342868l0.289596-401.923976 89.771583 89.478917c0.599657 0.825808 1.335415 1.337461 2.049682 2.073218 9.29776 9.29776 24.595164 9.030677 34.740222-1.11438C674.615123 433.930947 675.351903 418.166915 666.05312 408.869155z" p-id="3582"></path></svg>