<?xml version="1.0" standalone="no"?><!DOCTYPE svg PUBLIC "-//W3C//DTD SVG 1.1//EN" "http://www.w3.org/Graphics/SVG/1.1/DTD/svg11.dtd"><svg t="1569572799465" class="icon" viewBox="0 0 1228 1024" version="1.1" xmlns="http://www.w3.org/2000/svg" p-id="3355" xmlns:xlink="http://www.w3.org/1999/xlink" width="239.84375" height="200"><defs><style type="text/css"></style></defs><path d="M494.023826 23.041572a74.208566 74.208566 0 0 0-107.496051 0L23.05597 384.010559a77.274519 77.274519 0 0 0 0 110.06144l506.82073 506.82073a74.208566 74.208566 0 0 0 107.496051 0l53.748026-53.748026-271.368088-271.368087a25.341037 25.341037 0 0 1 35.852874-35.852874l271.305517 271.618369 71.643177-71.643177-360.843845-363.722087a25.341037 25.341037 0 1 1 35.852873-35.852874l363.409235 363.409235 71.643177-71.643177-271.305516-273.870906a25.341037 25.341037 0 0 1 35.852874-35.852874l273.870905 271.305517 100.112737-107.496051zM1205.575103 314.807629L988.017612 97.250138a74.208566 74.208566 0 0 0-107.496051 0l-122.825814 125.140921L1082.499007 550.385413l122.825814-122.825814a80.340471 80.340471 0 0 0 0.187712-112.626829z" p-id="3356" fill="currentColor"></path></svg>