<svg t="1619063477909" class="icon" viewBox="0 0 1279 1024" version="1.1" xmlns="http://www.w3.org/2000/svg" p-id="8994" width="200" height="200"><path d="M995.880775 451.881444L572.117296 28.117965A95.999882 95.999882 0 0 0 504.23538 0H95.999882C42.979947 0 0 42.979947 0 95.999882v408.235498a95.999882 95.999882 0 0 0 28.117965 67.881916l423.763479 423.763479c37.487954 37.489954 98.271879 37.491954 135.763833 0l408.235498-408.235498c37.489954-37.489954 37.489954-98.273879 0-135.763833zM223.999724 319.999606c-53.019935 0-95.999882-42.979947-95.999881-95.999882s42.979947-95.999882 95.999881-95.999881 95.999882 42.979947 95.999882 95.999881-42.979947 95.999882-95.999882 95.999882z m1027.880736 267.645671L843.644962 995.880775c-37.489954 37.489954-98.273879 37.489954-135.763833 0l-0.719999-0.72L1055.278702 647.043204c33.997958-33.997958 52.719935-79.199903 52.719935-127.279844s-18.723977-93.281885-52.719935-127.279843L662.793184 0h97.441881a95.999882 95.999882 0 0 1 67.881916 28.117965l423.763479 423.763479c37.489954 37.489954 37.489954 98.273879 0 135.763833z" fill="" p-id="8995"></path></svg>