<?xml version="1.0" standalone="no"?><!DOCTYPE svg PUBLIC "-//W3C//DTD SVG 1.1//EN" "http://www.w3.org/Graphics/SVG/1.1/DTD/svg11.dtd"><svg t="1612231451956" class="icon" viewBox="0 0 1024 1024" version="1.1" xmlns="http://www.w3.org/2000/svg" p-id="6554" width="32" height="32" xmlns:xlink="http://www.w3.org/1999/xlink"><defs><style type="text/css"></style></defs><path d="M704.682667 128C851.797333 128 938.666667 212.693333 938.666667 357.632h-180.522667v1.450667c-83.797333 0-151.722667 66.218667-151.722667 147.925333s67.925333 147.925333 151.722667 147.925333H938.666667v13.312C938.666667 811.306667 851.797333 896 704.682667 896H319.317333C172.202667 896 85.333333 811.306667 85.333333 668.245333V355.754667C85.333333 212.693333 172.202667 128 319.317333 128z m202.112 293.205333c17.621333 0 31.872 13.909333 31.872 31.061334v107.989333a31.829333 31.829333 0 0 1-31.872 31.061333H761.6c-42.410667 0.554667-79.530667-27.733333-89.130667-68.053333a84.565333 84.565333 0 0 1 18.474667-70.485333 89.258667 89.258667 0 0 1 67.242667-31.573334z m-128.170667 49.92h-14.037333a32.682667 32.682667 0 0 0-23.04 9.088 31.061333 31.061333 0 0 0-9.557334 22.357334c0 17.621333 14.506667 32 32.597334 32.170666h14.037333a32.213333 32.213333 0 0 0 32.597333-31.786666 32.213333 32.213333 0 0 0-32.597333-31.829334z m-250.325333-177.066666H287.488a32.213333 32.213333 0 0 0-32.64 31.402666c0 17.621333 14.549333 32 32.64 32.170667h240.810667a32.213333 32.213333 0 0 0 32.64-31.829333 32.213333 32.213333 0 0 0-32.64-31.786667z" p-id="6555" fill="currentColor"></path></svg>