<?xml version="1.0" standalone="no"?><!DOCTYPE svg PUBLIC "-//W3C//DTD SVG 1.1//EN" "http://www.w3.org/Graphics/SVG/1.1/DTD/svg11.dtd"><svg t="1571105012798" class="icon" viewBox="0 0 1024 1024" version="1.1" xmlns="http://www.w3.org/2000/svg" p-id="2835" xmlns:xlink="http://www.w3.org/1999/xlink" width="200" height="200"><defs><style type="text/css"></style></defs><path d="M94 952V72c0-39.765 32.235-72 72-72h404c39.765 0 72 32.235 72 72v124h216c39.765 0 72 32.235 72 72v684h58c19.882 0 36 16.118 36 36s-16.118 36-36 36H36c-19.882 0-36-16.118-36-36s16.118-36 36-36h58z m72 0h404V72H166v880z m476 0h216V268H642v684zM260 242h208c19.882 0 36 16.118 36 36s-16.118 36-36 36H260c-19.882 0-36-16.118-36-36s16.118-36 36-36z m0 234h208c19.882 0 36 16.118 36 36s-16.118 36-36 36H260c-19.882 0-36-16.118-36-36s16.118-36 36-36z m0 234h208c19.882 0 36 16.118 36 36s-16.118 36-36 36H260c-19.882 0-36-16.118-36-36s16.118-36 36-36z m490-310c19.882 0 36 16.118 36 36v72c0 19.882-16.118 36-36 36s-36-16.118-36-36v-72c0-19.882 16.118-36 36-36z m0 240c19.882 0 36 16.118 36 36v72c0 19.882-16.118 36-36 36s-36-16.118-36-36v-72c0-19.882 16.118-36 36-36z" p-id="2836"></path></svg>