<?xml version="1.0" standalone="no"?><!DOCTYPE svg PUBLIC "-//W3C//DTD SVG 1.1//EN" "http://www.w3.org/Graphics/SVG/1.1/DTD/svg11.dtd"><svg t="1528880429818" class="icon" style="" viewBox="0 0 1024 1024" version="1.1" xmlns="http://www.w3.org/2000/svg" p-id="2517" xmlns:xlink="http://www.w3.org/1999/xlink" width="200" height="200"><defs><style type="text/css"></style></defs><path d="M511.999488 64.021106c-247.27171 0-447.724091 200.452381-447.724091 447.724091s200.452381 447.724091 447.724091 447.724091 447.724091-200.453405 447.724091-447.724091S759.271198 64.021106 511.999488 64.021106zM729.257627 700.748828l0 9.730619 0 2.038426c0 2.595105-0.588401 5.189186-1.769296 7.693216-13.45443 30.024827-104.995309 53.193503-215.784578 53.193503-110.789269 0-202.230887-23.169699-215.785601-53.193503-1.178849-2.503007-1.768273-5.097088-1.768273-7.693216l0-2.038426 0-9.730619 0-73.955362c1.670036 1.205455 3.340071 2.50096 5.205559 3.706415 12.867052 8.433066 30.546713 15.84692 52.646034 22.057365 42.920532 12.047384 99.691513 18.627243 159.701259 18.627243 60.011792 0 116.782773-6.67298 159.703305-18.721387 22.196535-6.207375 39.876196-13.622252 52.643987-22.055318 1.769296-1.205455 3.535523-2.408863 5.205559-3.707438L729.255581 700.748828zM729.257627 568.872289l0 9.730619 0 2.039449c0 2.594081-0.588401 5.190209-1.769296 7.692193-13.45443 30.026874-104.995309 53.194526-215.784578 53.194526-110.88853 0-202.329125-23.168676-215.785601-53.194526-1.178849-2.50096-1.768273-5.097088-1.768273-7.692193l0-2.039449 0-9.730619 0-73.954339c1.670036 1.204431 3.340071 2.501984 5.205559 3.707438 12.867052 8.43409 30.546713 15.847943 52.646034 22.056342 42.920532 12.047384 99.691513 18.628266 159.701259 18.628266 60.011792 0 116.782773-6.580882 159.703305-18.628266 22.196535-6.207375 39.876196-13.622252 52.643987-22.056342 1.769296-1.204431 3.535523-2.408863 5.205559-3.707438L729.255581 568.872289zM729.257627 434.30957l0 9.730619 0 2.039449c0 2.595105-0.588401 5.190209-1.769296 7.692193-13.45443 30.026874-104.995309 53.195549-215.784578 53.195549-110.789269 0-202.230887-23.168676-215.785601-53.195549-1.178849-2.501984-1.768273-5.097088-1.768273-7.692193l0-2.039449 0-9.730619 0-73.954339c1.670036 1.204431 3.340071 2.501984 5.205559 3.707438 12.867052 8.433066 30.546713 15.84692 52.646034 22.056342 42.920532 12.047384 99.691513 18.627243 159.701259 18.627243 60.011792 0 116.782773-6.579859 159.703305-18.627243 22.196535-6.209422 39.876196-13.623275 52.643987-22.056342 1.769296-1.205455 3.535523-2.409886 5.205559-3.707438L729.255581 434.30957zM511.704776 372.959294c-120.119775 0-217.552851-27.246551-217.552851-60.887742 0-3.335978 0.884137-6.579859 2.750647-9.730619 1.964748-3.335978 4.813632-6.579859 8.642844-9.730619 29.073152-24.00267 110.398366-41.333384 206.160383-41.333384 95.764064 0 177.088254 17.237593 206.161407 41.333384 3.829212 3.15076 6.677073 6.39464 8.641821 9.730619 1.769296 3.15076 2.750647 6.39464 2.750647 9.730619C729.257627 345.619622 631.825574 372.866173 511.704776 372.959294z" p-id="2518"></path></svg>