<?xml version="1.0" standalone="no"?><!DOCTYPE svg PUBLIC "-//W3C//DTD SVG 1.1//EN" "http://www.w3.org/Graphics/SVG/1.1/DTD/svg11.dtd"><svg t="1528879957177" class="icon" style="" viewBox="0 0 1024 1024" version="1.1" xmlns="http://www.w3.org/2000/svg" p-id="1200" data-spm-anchor-id="a313x.7781069.0.i1" xmlns:xlink="http://www.w3.org/1999/xlink" width="200" height="200"><defs><style type="text/css"></style></defs><path d="M291.212478 166.487825l441.576067 0c14.427594 0 26.239618-11.806907 26.239618-26.237571L759.028163 26.584472c0-14.429641-11.812023-26.237571-26.239618-26.237571L291.212478 0.346901c-14.435781 0-26.239618 11.80793-26.239618 26.237571l0 113.664759C264.971837 154.681942 276.776697 166.487825 291.212478 166.487825z" p-id="1201"></path><path d="M860.248496 80.794118l-74.980715 0 0 59.459207c0 28.941146-23.554462 52.478212-52.480258 52.478212L291.219641 192.731536c-28.933983 0-52.480258-23.537066-52.480258-52.478212L238.739383 80.794118l-74.987878 0c-43.282782 0-78.704526 35.413558-78.704526 78.698386L85.046978 944.954713c0 43.282782 35.421744 78.698386 78.704526 78.698386l696.496991 0c43.282782 0 78.704526-35.415604 78.704526-78.698386L938.953022 159.492504C938.953022 116.207675 903.531278 80.794118 860.248496 80.794118zM814.18539 787.03196c0 19.976984-16.340153 36.32123-36.319184 36.32123L247.156076 823.353191c-19.97903 0-36.319184-16.344247-36.319184-36.32123l0-6.054903c0-19.97903 16.340153-36.323277 36.319184-36.323277l530.710131 0c19.97903 0 36.319184 16.344247 36.319184 36.323277L814.18539 787.03196zM814.18539 572.366879c0 19.976984-16.340153 36.32123-36.319184 36.32123L247.156076 608.688109c-19.97903 0-36.319184-16.344247-36.319184-36.32123l0-6.056949c0-19.976984 16.340153-36.32123 36.319184-36.32123l530.710131 0c19.97903 0 36.319184 16.344247 36.319184 36.32123L814.18539 572.366879zM814.18539 357.699752c0 19.97903-16.340153 36.323277-36.319184 36.323277L247.156076 394.023028c-19.97903 0-36.319184-16.344247-36.319184-36.323277l0-6.054903c0-19.976984 16.340153-36.323277 36.319184-36.323277l530.710131 0c19.97903 0 36.319184 16.346293 36.319184 36.323277L814.18539 357.699752z" p-id="1202"></path></svg>