<?xml version="1.0" encoding="UTF-8"?>
<svg width="480px" height="480px" viewBox="0 0 480 480" version="1.1" xmlns="http://www.w3.org/2000/svg" xmlns:xlink="http://www.w3.org/1999/xlink">
    <title>暂无图片</title>
    <defs>
        <linearGradient x1="50%" y1="100.221895%" x2="50%" y2="0.0703648757%" id="linearGradient-1">
            <stop stop-color="#FFFFFF" stop-opacity="0.1" offset="0%"></stop>
            <stop stop-color="#D9E9FF" offset="100%"></stop>
        </linearGradient>
        <linearGradient x1="50.0935971%" y1="100%" x2="50.0935971%" y2="0.00693856876%" id="linearGradient-2">
            <stop stop-color="#FFFFFF" stop-opacity="0.1" offset="0%"></stop>
            <stop stop-color="#F8FBFF" stop-opacity="0.27" offset="14%"></stop>
            <stop stop-color="#EDF5FF" stop-opacity="0.52" offset="37%"></stop>
            <stop stop-color="#E4F0FF" stop-opacity="0.73" offset="58%"></stop>
            <stop stop-color="#DEECFF" stop-opacity="0.88" offset="76%"></stop>
            <stop stop-color="#DAEAFF" stop-opacity="0.97" offset="91%"></stop>
            <stop stop-color="#D9E9FF" offset="100%"></stop>
        </linearGradient>
        <linearGradient x1="49.9839796%" y1="99.9311993%" x2="49.9839796%" y2="-0.0811277354%" id="linearGradient-3">
            <stop stop-color="#FFFFFF" stop-opacity="0.1" offset="0%"></stop>
            <stop stop-color="#FEFEFF" stop-opacity="0.13" offset="9%"></stop>
            <stop stop-color="#FBFCFF" stop-opacity="0.21" offset="23%"></stop>
            <stop stop-color="#F5F9FF" stop-opacity="0.33" offset="40%"></stop>
            <stop stop-color="#EEF5FF" stop-opacity="0.51" offset="59%"></stop>
            <stop stop-color="#E4EFFF" stop-opacity="0.74" offset="79%"></stop>
            <stop stop-color="#D9E9FF" offset="100%"></stop>
        </linearGradient>
        <linearGradient x1="50%" y1="100%" x2="50%" y2="-2.47145299e-14%" id="linearGradient-4">
            <stop stop-color="#FFFFFF" stop-opacity="0.1" offset="0%"></stop>
            <stop stop-color="#FBFDFF" stop-opacity="0.19" offset="13%"></stop>
            <stop stop-color="#F1F7FF" stop-opacity="0.43" offset="41%"></stop>
            <stop stop-color="#E1EEFF" stop-opacity="0.82" offset="81%"></stop>
            <stop stop-color="#D9E9FF" offset="100%"></stop>
        </linearGradient>
        <linearGradient x1="2.7458096%" y1="52.6561136%" x2="70.9231618%" y2="42.7187127%" id="linearGradient-5">
            <stop stop-color="#143E81" offset="0%"></stop>
            <stop stop-color="#143E81" offset="100%"></stop>
        </linearGradient>
        <linearGradient x1="14.6627398%" y1="53.6256846%" x2="69.0277915%" y2="50.0079318%" id="linearGradient-6">
            <stop stop-color="#3E65A3" offset="0%"></stop>
            <stop stop-color="#143E81" offset="100%"></stop>
        </linearGradient>
        <linearGradient x1="0%" y1="49.9965194%" x2="112.609984%" y2="34.9601041%" id="linearGradient-7">
            <stop stop-color="#D4E7FF" offset="0%"></stop>
            <stop stop-color="#B5D6FC" stop-opacity="0.93" offset="36%"></stop>
            <stop stop-color="#5B9AF5" offset="100%"></stop>
        </linearGradient>
        <linearGradient x1="0%" y1="50%" x2="100%" y2="50%" id="linearGradient-8">
            <stop stop-color="#FFFFFF" offset="0%"></stop>
            <stop stop-color="#C3DDFF" offset="100%"></stop>
        </linearGradient>
        <linearGradient x1="93.2765466%" y1="50%" x2="-69.0058789%" y2="57.7544098%" id="linearGradient-9">
            <stop stop-color="#FFFFFF" offset="0%"></stop>
            <stop stop-color="#5998F4" offset="100%"></stop>
        </linearGradient>
        <linearGradient x1="-67.0887763%" y1="71.1619513%" x2="113.223583%" y2="34.0953581%" id="linearGradient-10">
            <stop stop-color="#5998F4" offset="0%"></stop>
            <stop stop-color="#FFFFFF" offset="100%"></stop>
        </linearGradient>
    </defs>
    <g id="组件设计" stroke="none" stroke-width="1" fill="none" fill-rule="evenodd">
        <g id="基础-缺省图" transform="translate(-90.000000, -3574.000000)">
            <g id="暂无图片" transform="translate(90.000000, 3574.000000)">
                <rect id="矩形" fill="#D8D8D8" opacity="0" x="0" y="0" width="480" height="480"></rect>
                <polygon id="路径" fill="#E4EFFF" fill-rule="nonzero" points="93.7527086 277.867109 95.8466376 300.268367 82.7299502 298.791651"></polygon>
                <polygon id="路径" fill="#F3F8FF" fill-rule="nonzero" points="93.7527086 277.867109 107.567372 295.548149 95.8466376 300.268367"></polygon>
                <polygon id="路径" fill="#E4EFFF" fill-rule="nonzero" points="46.7512453 283.655309 49.4377958 312.319426 32.9102428 310.407606"></polygon>
                <polygon id="路径" fill="#F3F8FF" fill-rule="nonzero" points="46.7512453 283.655309 64.2138232 306.320267 49.4377958 312.319426"></polygon>
                <polygon id="路径" fill="#E4EFFF" fill-rule="nonzero" points="69.1391656 263.82512 73.5640722 311.238259 43.814477 308.284827"></polygon>
                <polygon id="路径" fill="#F3F8FF" fill-rule="nonzero" points="69.1391656 263.82512 100.258375 301.085835 73.5640722 311.238259"></polygon>
                <path d="M78.2523661,159.822104 C76.4949585,150.545651 68.3363863,143.873163 58.9065691,144.000144 C53.8451766,143.971493 48.9591308,145.854779 45.223599,149.274131 C43.1014463,148.354511 40.8059034,147.904753 38.4940535,147.955634 C31.2450758,147.82963 24.8822538,152.763643 23.1912516,159.822104 C17.5960726,161.060619 13.5614358,165.953587 13.4064134,171.688574 C13.6215531,178.667493 19.4193203,184.166001 26.3914072,184.003333 L75.0127024,184.003333 C81.9847893,184.166001 87.7825565,178.667493 87.9976961,171.688574 C87.8517137,165.963623 83.8345006,161.072035 78.2523661,159.822104 L78.2523661,159.822104 Z" id="路径" fill="url(#linearGradient-1)" fill-rule="nonzero"></path>
                <path d="M360.142621,95.6508721 C357.619632,91.7486931 353.351659,89.3266535 348.711613,89.1638686 C346.020181,85.0378107 341.398644,82.5873374 336.477273,82.6768651 C332.528738,82.6345318 328.730168,84.1890369 325.941781,86.9883492 C324.664031,86.5816349 323.331738,86.3726617 321.990971,86.3686557 C315.7882,86.3686557 310.652148,90.6669548 310.138543,96.099161 C305.410179,97.2274836 302.005722,101.362903 301.802335,106.225215 C301.802335,112.07934 307.162267,116.852298 313.654763,116.852298 L359.168088,116.852298 C365.752771,116.852298 371.020517,112.07934 371.020517,106.225215 C371.139041,100.661159 366.266376,96.0596061 360.142621,95.6508721 Z" id="路径" fill="url(#linearGradient-2)" fill-rule="nonzero"></path>
                <path d="M444.597758,80.356311 C440.135092,71.1417502 430.818481,65.2780722 420.590006,65.2463394 C414.893086,65.2586132 409.35166,67.1079433 404.786768,70.520326 C399.354892,59.9130884 387.558109,54.1957408 375.878642,56.5099128 C364.199176,58.8240848 355.466767,68.6090908 354.479795,80.4881607 C341.91587,84.4573432 334.119798,97.0061906 336.118146,110.043751 C338.116495,123.081311 349.312205,132.712268 362.486768,132.727047 L436.867341,132.727047 C450.118105,132.752181 461.381604,123.041916 463.323968,109.918734 C465.266332,96.7955513 457.299545,84.2322611 444.610928,80.4090509 L444.597758,80.356311 Z" id="路径" fill="url(#linearGradient-3)" fill-rule="nonzero"></path>
                <ellipse id="椭圆形" fill="url(#linearGradient-4)" fill-rule="nonzero" cx="239.682441" cy="346.929963" rx="239.682441" ry="75.8135573"></ellipse>
                <g id="编组" transform="translate(316.000000, 257.000000)" fill-rule="nonzero">
                    <path d="M7.41726316,53.0863158 C7.41726316,53.0863158 7.92926316,53.7802105 6.44042105,56.2930526 C8.704,57.0745263 11.6884211,56.1515789 11.6884211,56.1515789 L11.5267368,51.968 L7.41726316,53.0863158 Z" id="路径" fill="#FECCA9"></path>
                    <path d="M13.3456842,58.9877895 L0.181894737,59.6547368 C0.181894737,59.6547368 -0.687157895,55.7406316 4.50694737,55.6395789 C5.55789474,55.6193684 6.36631579,54.3932632 7.22863158,54.3865263 C9.29684211,56.0774737 12.7124211,55.6058947 12.7124211,55.6058947 L13.3456842,58.9877895 Z" id="路径" fill="#003A8C"></path>
                    <polygon id="路径" fill="#001529" points="13.6555789 59.8366316 7.88210526 60.6450526 7.61936842 59.6008421 0.195368421 60.4564211 0 59.5738947 13.312 57.8964211"></polygon>
                    <path d="M22.4134737,6.04968421 C22.4134737,6.04968421 21.0189474,8.76463158 22.9658947,12.3351579 C23.424,13.0021053 24.2728421,14.1541053 25.8290526,12.8943158 C25.9772632,12.8336842 26.112,13.0357895 26.1861053,13.2311579 C26.2602105,13.4265263 27.3448421,16.8421053 27.3448421,16.8421053 L32.3233684,15.9865263 C32.3233684,15.9865263 28.4833684,7.73389474 28.2273684,6.02947368 C28.0858947,5.15368421 26.8867368,3.78610526 25.0273684,4.02863158 C23.168,4.27115789 22.4134737,6.04968421 22.4134737,6.04968421 Z" id="路径" fill="#FECCA9"></path>
                    <path d="M22.8581053,2.28378947 C22.8581053,2.28378947 22.1844211,1.42147368 20.9111579,2.36463158 C19.6378947,3.30778947 20.5271579,4.41936842 20.6282105,4.71578947 C20.7292632,5.01221053 20.5810526,5.28842105 20.1431579,5.19410526 C19.6985263,5.09978947 18.9507368,5.11326316 18.6071579,6.13726316 C18.2635789,7.16126316 19.7793684,9.45178947 21.3625263,8.91957895 C22.9456842,8.38736842 23.6126316,7.40378947 24.0976842,6.70989474 C24.5827368,6.016 25.5865263,5.10652632 25.8762105,5.77347368 C26.1658947,6.44715789 26.3814737,7.92252632 26.6711579,7.64631579 C26.9406316,7.39031579 26.496,5.91494737 27.3987368,5.75326316 C28.3014737,5.59157895 28.4631579,6.90526316 27.9983158,7.70694737 C27.7962105,8.05052632 27.8029474,7.98989474 27.9444211,8.27957895 C28.0858947,8.56926316 28.0993684,8.77810526 28.4901053,9.08126316 C28.8875789,9.38442105 29.056,9.55957895 29.2311579,8.98694737 C29.4063158,8.41431579 29.7364211,7.32294737 29.0896842,5.248 C28.8741053,4.67536842 29.056,4.60126316 29.3052632,4.21052632 C29.5545263,3.81978947 29.9048421,3.21347368 29.3187368,2.53305263 C28.7326316,1.85263158 28.3149474,2.02105263 27.7557895,2.14905263 C27.1966316,2.27705263 27.1831579,2.06147368 27.1157895,1.73136842 C27.0484211,1.39452632 26.4084211,0.175157895 25.2968421,0.397473684 C24.1852632,0.619789474 23.8147368,1.33389474 23.6261053,1.92 C23.4374737,2.50610526 23.0669474,2.42526316 22.8581053,2.28378947 Z" id="路径" fill="#003A8C"></path>
                    <path d="M27.5941053,37.8543158 C27.1225263,37.6185263 8.77136842,29.6353684 5.20084211,33.0644211 C1.63031579,36.5002105 7.23536842,54.0901053 7.23536842,54.0901053 L12.2004211,53.7397895 L11.5536842,41.6808421 L21.0661053,47.4812632 L27.5941053,37.8543158 Z" id="路径" fill="url(#linearGradient-5)"></path>
                    <path d="M24.5221053,39.552 C24.5221053,39.552 5.38947368,51.7389474 7.74063158,58.5768421 C7.74063158,58.5768421 8.27284211,61.6757895 14.2618947,60.6585263 C20.2509474,59.6412632 29.9183158,56.0572632 29.9183158,56.0572632 L30.2349474,51.2808421 C30.2349474,51.2808421 38.1237895,51.4829474 39.1141053,44.0050526 C40.3132632,34.9305263 32.3233684,34.9911579 24.5221053,39.552 Z" id="路径" fill="url(#linearGradient-6)"></path>
                    <path d="M33.3136842,50.5061053 L33.3204211,62.5717895 C33.3204211,62.5717895 32.5456842,63.2656842 31.7372632,63.4341053 C30.8682105,63.616 29.9722105,63.232 30.1338947,62.2753684 C30.2955789,61.3052632 31.3802105,60.4698947 29.9924211,58.7587368 C29.3322105,57.9435789 28.5844211,57.1890526 28.4901053,56.4210526 C30.2484211,54.4336842 29.8981053,51.0046316 29.8981053,51.0046316 L33.3136842,50.5061053 Z" id="路径" fill="#003A8C"></path>
                    <path d="M34.176,50.2298947 L34.7823158,56.0235789 L33.7246316,56.2458947 C33.7246316,56.2458947 34.0816842,60.8741053 34.0277895,61.4602105 C33.9738947,62.0395789 32.8555789,63.2993684 32.5995789,63.4408421 C32.3435789,63.5823158 31.5351579,63.4610526 31.5351579,63.4610526 C31.5351579,63.4610526 33.2058947,61.6623158 33.1587368,61.1435789 C33.1115789,60.6248421 32.2223158,50.4993684 32.2223158,50.4993684 L34.176,50.2298947 Z" id="路径" fill="#001529"></path>
                    <path d="M26.3141053,17.6168421 C26.3141053,17.6168421 19.4290526,23.2016842 16.7545263,25.7145263 C16.8623158,24.0235789 18.5128421,16.9364211 18.1557895,15.2252632 C18.1490526,13.7633684 18.176,12.9347368 17.3002105,12.3890526 C16.4244211,11.8433684 15.2589474,11.3044211 14.6526316,10.9406316 C14.08,10.5970526 13.2985263,11.0484211 14.2955789,12.0185263 C14.9827368,12.6922105 13.6286316,11.9848421 12.9212632,11.4930526 C12.2138947,11.0012632 11.4054737,10.1793684 10.8530526,10.4218947 C10.1793684,10.7183158 10.8530526,13.0357895 12.3284211,13.8576842 C13.8037895,14.6795789 15.0029474,14.8816842 15.0029474,16.3570526 C15.0029474,17.8324211 10.5431579,31.2724211 13.6016842,32.4378947 C16.6602105,33.6033684 28.3553684,22.3865263 28.3553684,22.3865263 L26.3141053,17.6168421 Z" id="路径" fill="#FDC081"></path>
                    <path d="M38.2989474,21.4501053 C38.2989474,21.4501053 36.0421053,10.9406316 29.9048421,13.0762105 C26.5701053,14.2416842 23.7204211,16.8421053 22.8109474,24.1448421 C22.4943158,27.8029474 23.2084211,33.3002105 22.9995789,36.1835789 C22.784,39.0669474 21.9553684,40.3132632 24.6298947,41.1418947 C26.3814737,41.6808421 32.9566316,45.6757895 35.1595789,45.8576842 C37.7397895,46.0732632 40.0842105,46.0126316 40.1044211,42.8934737 C40.1246316,39.2825263 39.4576842,27.0618947 38.2989474,21.4501053 Z" id="路径" fill="#53A4FC"></path>
                    <path d="M20.4867368,12.3284211 C20.1027368,9.94357895 18.5734737,9.07452632 18.5734737,9.07452632 L18.5734737,7.85515789 L18.5734737,6.99284211 L18.5734737,6.89178947 L18.4926316,6.90526316 C18.4858947,6.90526316 18.4791579,6.89178947 18.4656842,6.89178947 L16.0943158,6.89178947 C16.0336842,6.89178947 15.9932632,6.93894737 15.9932632,6.99284211 L15.9932632,7.49136842 L14.5717895,7.49136842 C14.3090526,7.49136842 14.1002105,7.70021053 14.1002105,7.96294737 L14.1002105,8.05052632 C14.1002105,8.31326316 13.8913684,8.52210526 13.6286316,8.52210526 L8.40757895,8.52210526 C8.03705263,8.52210526 7.74063158,8.81852632 7.74063158,9.18905263 L7.74063158,12.1330526 C7.74063158,12.4766316 7.99663158,12.7595789 8.34021053,12.7932632 L10.3612632,13.0021053 L18.4252632,14.8075789 C18.4252632,14.8075789 18.5869474,11.904 18.4926316,10.2602105 C19.3616842,10.7789474 19.4627368,12.6181053 19.4627368,12.6181053 L19.9477895,15.6833684 L20.7225263,15.9393684 C20.7157895,15.9393684 20.7764211,15.5553684 20.4867368,12.3284211 Z" id="路径" fill="#003A8C"></path>
                    <path d="M25.6741053,19.7591579 C25.6741053,19.7591579 18.8227368,24.3671579 16.1482105,26.8732632 C16.256,25.1823158 17.5157895,17.7178947 17.1654737,16.0067368 C17.1587368,14.5448421 17.1856842,13.7162105 16.3098947,13.1705263 C15.4341053,12.6248421 14.2686316,12.0858947 13.6623158,11.7221053 C13.0896842,11.3785263 12.3082105,11.8298947 13.3052632,12.8 C13.9924211,13.4669474 12.6383158,12.7663158 11.9309474,12.2745263 C11.2235789,11.7827368 10.4151579,10.9608421 9.86273684,11.2033684 C9.18905263,11.4997895 9.86273684,13.8172632 11.3381053,14.6391579 C12.8134737,15.4610526 14.0126316,15.6631579 14.0126316,17.1385263 C14.0126316,18.6138947 9.55284211,32.0538947 12.6113684,33.2193684 C15.6698947,34.3848421 27.5065263,25.1890526 27.5065263,25.1890526 L25.6741053,19.7591579 Z" id="路径" fill="#FECCA9"></path>
                    <path d="M23.3835789,20.6349474 L27.1696842,27.0618947 C27.1696842,27.0618947 34.8496842,22.3191579 31.5823158,17.9536842 C28.3149474,13.5882105 23.3835789,20.6349474 23.3835789,20.6349474 Z" id="路径" fill="#40A9FF"></path>
                    <path d="M29.9048421,50.9978947 C29.9048421,50.9978947 18.7755789,53.4770526 15.5486316,56.3132632 C20.0218947,55.3633684 29.9048421,50.9978947 29.9048421,50.9978947 Z" id="路径" fill="#143E81"></path>
                </g>
                <polygon id="路径" fill="#E4EFFF" fill-rule="nonzero" points="423.61896 283.49709 421.366999 313.216004 404.576059 308.350751"></polygon>
                <polygon id="路径" fill="#F3F8FF" fill-rule="nonzero" points="423.61896 283.49709 437.72335 309.682433 421.366999 313.216004"></polygon>
                <g id="编组-26" transform="translate(127.582418, 162.912088)" fill-rule="nonzero">
                    <path d="M11.7227854,0 L170.900931,0 C178.573482,0 182.409758,4.43346935 182.409758,13.3004081 L182.409758,134.08898 C182.409758,142.955919 178.573482,147.389388 170.900931,147.389388 L11.7227854,147.389388 C4.0502339,147.389388 0.213958165,142.955919 0.213958165,134.08898 L0.213958165,13.3004081 C0.213958165,4.43346935 4.0502339,0 11.7227854,0 Z" id="路径" fill="url(#linearGradient-7)"></path>
                    <path d="M14.3064619,12.4180308 L169.840136,12.4180308 C171.156544,12.4180308 171.814748,13.201444 171.814748,14.7682703 L171.814748,132.892281 C171.814748,134.459108 171.156544,135.242521 169.840136,135.242521 L14.3064619,135.242521 C12.9900533,135.242521 12.3318489,134.459108 12.3318489,132.892281 L12.3318489,14.7682703 C12.3318489,13.201444 12.9900533,12.4180308 14.3064619,12.4180308 Z" id="路径" fill="url(#linearGradient-8)"></path>
                    <path d="M62.2361905,53.093978 L87.0035382,90.9449241 C88.140362,92.6835773 90.4525065,93.2011471 92.2206601,92.1127683 L116.684408,77.0667772 C118.424689,75.9944345 120.699292,76.4784042 121.853593,78.1666302 L146.397236,114.017844 C147.195733,115.19291 147.280577,116.713468 146.617774,117.970265 C145.95497,119.227063 144.652951,120.01449 143.233407,120.017117 L33.3462777,120.017117 C32.0572341,120.02504 30.8505978,119.383443 30.1353657,118.309727 C29.4201336,117.23601 29.2922116,115.874149 29.7949597,114.685754 L55.4930803,53.6938979 C56.0479569,52.3897162 57.2748129,51.4972011 58.6851492,51.3717265 C60.0954854,51.2462519 61.4603107,51.9081908 62.2361905,53.093978 L62.2361905,53.093978 Z" id="路径" fill="url(#linearGradient-9)"></path>
                    <path d="M123.195823,60.7449565 C123.195823,68.3014121 129.314293,74.4271298 136.861807,74.4271298 C144.409321,74.4271298 150.52779,68.3014121 150.52779,60.7449565 C150.52779,53.1885008 144.409321,47.0627832 136.861807,47.0627832 C129.314293,47.0627832 123.195823,53.1885008 123.195823,60.7449565 L123.195823,60.7449565 Z" id="路径" fill="url(#linearGradient-10)"></path>
                </g>
            </g>
        </g>
    </g>
</svg>